<?xml version="1.0" standalone="no"?>
<!DOCTYPE svg PUBLIC "-//W3C//DTD SVG 20010904//EN"
 "http://www.w3.org/TR/2001/REC-SVG-20010904/DTD/svg10.dtd">
<svg version="1.0" xmlns="http://www.w3.org/2000/svg"
 width="494.000000pt" height="505.000000pt" viewBox="0 0 494.000000 505.000000"
 preserveAspectRatio="xMidYMid meet">
<g transform="translate(0.000000,505.000000) scale(0.100000,-0.100000)"
fill="#000000" stroke="none">
<path d="M4529 3253 c-13 -16 -12 -17 4 -4 16 13 21 21 13 21 -2 0 -10 -8 -17
-17z"/>
<path d="M1654 3213 c58 -112 110 -408 124 -713 l8 -165 7 160 c13 278 42 483
83 584 9 23 15 43 13 44 -2 2 -57 30 -121 62 -65 32 -118 63 -118 67 0 4 -5 8
-10 8 -6 0 1 -21 14 -47z m84 -50 c5 -9 22 -17 37 -19 16 -2 31 -7 34 -12 3
-5 16 -12 29 -16 14 -5 19 -12 15 -19 -4 -7 -9 -16 -10 -22 -1 -5 -11 -41 -22
-79 -10 -38 -17 -74 -15 -81 3 -7 -2 -15 -10 -18 -9 -4 -16 -12 -16 -19 0 -9
3 -9 11 2 9 12 10 12 5 -3 -3 -10 -6 -23 -6 -28 0 -6 -5 -7 -11 -4 -5 4 -9 17
-7 28 1 12 -1 28 -6 36 -7 10 -3 12 15 7 24 -7 24 -7 -1 8 -14 9 -21 15 -17
16 5 0 5 5 1 11 -3 6 -8 31 -10 55 -2 25 -13 66 -24 91 -23 52 -24 57 -10 48
15 -9 12 2 -6 19 -14 14 -14 16 0 16 8 0 19 -7 24 -17z"/>
<path d="M3823 3239 c14 -8 17 -25 17 -94 0 -69 -3 -86 -17 -94 -14 -8 -7 -10
32 -10 39 0 46 2 33 10 -15 8 -18 24 -18 92 0 51 5 88 12 95 9 9 2 12 -32 12
-36 -1 -41 -3 -27 -11z"/>
<path d="M3933 3244 c14 -5 17 -18 17 -94 0 -74 -3 -91 -17 -99 -14 -8 -9 -10
27 -11 34 0 41 3 32 12 -16 16 -16 91 0 86 7 -3 24 -24 38 -49 18 -30 34 -45
51 -47 l24 -4 -21 24 c-12 12 -29 36 -39 51 -17 27 -17 28 0 41 20 14 23 62 6
79 -6 6 -39 12 -73 13 -35 2 -55 1 -45 -2z m81 -14 c44 -17 30 -80 -19 -80
-18 0 -20 5 -17 45 2 25 6 45 7 45 2 0 15 -4 29 -10z"/>
<path d="M4207 3243 c-2 -5 -12 -33 -22 -63 -23 -71 -51 -127 -67 -133 -7 -3
5 -6 27 -6 26 0 35 2 26 8 -10 7 -11 16 -4 37 8 24 16 30 45 32 32 3 36 0 41
-25 4 -19 1 -32 -11 -40 -13 -11 -8 -13 34 -12 27 1 41 3 32 6 -11 3 -27 37
-48 104 -29 91 -41 112 -53 92z m33 -110 c0 -2 -13 -3 -30 -3 l-29 0 17 45 16
45 13 -43 c7 -23 13 -43 13 -44z"/>
<path d="M4383 3235 c-45 -31 -54 -144 -15 -178 45 -38 119 -22 142 32 18 45
8 121 -20 143 -27 22 -78 23 -107 3z m74 -10 c68 -48 38 -195 -35 -169 -37 13
-54 49 -49 108 6 69 39 93 84 61z"/>
<path d="M618 3191 c-15 -26 -34 -54 -43 -61 -25 -20 -18 -36 33 -73 57 -42
113 -71 170 -88 l43 -13 -58 -21 c-32 -13 -82 -34 -110 -49 -41 -20 -67 -26
-118 -26 l-65 0 31 -42 c41 -58 59 -102 60 -152 l0 -41 24 49 c73 146 216 266
321 269 44 1 44 13 -1 21 -97 19 -198 102 -229 191 -10 28 -21 58 -24 68 -6
13 -13 7 -34 -32z m38 -66 c3 -14 10 -22 15 -19 5 3 6 -2 3 -10 -4 -10 1 -18
11 -22 9 -4 14 -13 10 -21 -3 -10 -1 -13 8 -10 8 3 14 -1 14 -9 0 -14 -11 -10
-41 15 -10 9 -20 14 -21 11 -6 -9 -65 40 -65 53 0 8 4 7 10 -3 5 -8 10 -12 11
-7 1 4 3 12 4 17 1 6 3 15 4 20 2 21 31 9 37 -15z m15 -279 c-12 -7 -18 -16
-14 -22 4 -5 1 -3 -7 4 -13 12 -13 15 4 27 10 8 23 12 29 8 5 -3 0 -11 -12
-17z m-33 -30 c3 -13 0 -16 -9 -11 -7 5 -10 4 -5 -3 6 -9 -33 -62 -47 -62 -3
0 -4 13 -3 30 2 23 -1 27 -11 18 -12 -10 -17 -4 -14 15 0 4 -4 7 -9 7 -7 0 -6
5 1 13 7 7 30 12 53 12 32 0 42 -4 44 -19z"/>
<path d="M627 3106 c-16 -13 -16 -14 -1 -20 10 -4 22 -2 28 4 7 7 6 10 -3 10
-7 0 -9 5 -6 10 8 13 4 12 -18 -4z"/>
<path d="M654 3068 c-4 -7 -4 -10 1 -6 4 4 15 2 24 -5 14 -11 14 -10 2 6 -16
20 -18 21 -27 5z"/>
<path d="M480 3197 c-51 -25 -100 -42 -147 -52 -37 -7 -37 -8 -22 -38 30 -55
50 -234 56 -507 l7 -275 17 176 c27 269 76 526 128 667 11 28 16 52 13 51 -4
0 -27 -10 -52 -22z m-5 -74 c-7 -21 -17 -47 -21 -58 -12 -35 -17 -55 -30 -130
-4 -22 -12 -46 -18 -54 -8 -11 -8 -13 2 -7 6 4 12 2 12 -3 0 -6 -4 -11 -9 -11
-5 0 -8 -12 -6 -26 1 -14 -1 -22 -6 -17 -5 5 -11 29 -14 53 -2 25 -6 57 -8 72
-3 16 0 25 5 22 6 -4 5 2 0 13 -6 11 -13 30 -15 44 -2 13 -9 37 -16 53 -14 34
-6 45 35 52 16 3 32 11 36 17 4 7 8 9 8 5 0 -5 41 3 57 11 1 1 -5 -16 -12 -36z"/>
<path d="M4381 3016 l-24 -13 34 -6 c19 -3 48 -9 65 -12 33 -7 74 8 74 27 0 7
-4 7 -13 -1 -8 -6 -33 -8 -66 -4 -34 4 -48 9 -39 14 21 14 -5 9 -31 -5z"/>
<path d="M2094 2949 c-15 -24 -147 -101 -194 -112 -34 -8 -50 -17 -50 -28 0
-14 5 -15 53 -2 102 26 149 27 195 4 68 -35 98 -115 122 -331 17 -152 17 -153
19 -65 3 164 38 351 77 412 14 22 12 24 -53 54 -38 17 -89 42 -115 55 -32 16
-49 20 -54 13z m30 -39 c-7 12 -5 13 8 3 8 -7 19 -9 23 -5 5 4 5 2 1 -5 -4 -8
7 -16 34 -23 40 -11 106 -59 81 -60 -7 0 -11 -6 -7 -15 3 -8 0 -15 -7 -16 -9
0 -9 -2 0 -6 10 -3 9 -10 -2 -27 -8 -12 -13 -25 -10 -28 3 -3 1 -17 -5 -32
-12 -33 -34 -24 -26 10 5 17 1 27 -14 36 -11 7 -20 19 -20 26 0 7 -7 15 -15
18 -8 4 -13 10 -10 14 3 4 -2 10 -10 14 -8 3 -15 12 -15 21 0 8 -5 15 -11 15
-5 0 -7 -4 -4 -10 9 -15 -11 -12 -27 3 -7 7 -17 13 -23 13 -5 -1 -11 7 -13 17
-2 12 3 17 19 17 12 0 20 3 16 6 -3 3 -1 12 6 19 9 10 14 9 25 -4 10 -12 11
-12 6 -1z m-84 -50 c0 -5 -5 -10 -11 -10 -5 0 -7 5 -4 10 3 6 8 10 11 10 2 0
4 -4 4 -10z m170 -140 c0 -5 -2 -10 -4 -10 -3 0 -8 5 -11 10 -3 6 -1 10 4 10
6 0 11 -4 11 -10z"/>
<path d="M2460 2950 c-9 -6 -10 -10 -3 -10 6 0 15 5 18 10 8 12 4 12 -15 0z"/>
<path d="M1052 2838 c11 -117 31 -218 58 -291 23 -62 84 -159 122 -195 22 -20
22 -16 -9 45 -44 89 -57 171 -43 274 6 44 18 98 26 121 8 22 13 42 12 43 -15
9 -168 95 -170 95 -2 0 0 -42 4 -92z m43 32 c-3 -5 1 -11 9 -11 28 -2 31 -4
57 -24 17 -13 23 -26 19 -35 -4 -8 -15 -30 -25 -49 -12 -22 -13 -31 -5 -26 10
6 11 4 5 -11 -5 -10 -9 -41 -10 -69 0 -59 -13 -69 -31 -25 -10 23 -10 29 -1
24 9 -5 9 -3 0 7 -7 7 -13 24 -13 37 0 13 -5 33 -11 44 -8 15 -8 19 0 14 6 -4
11 -3 11 3 0 5 -5 13 -10 16 -14 9 -7 54 11 67 11 8 10 9 -5 4 -13 -5 -17 -2
-12 9 3 8 0 15 -7 15 -8 0 -6 4 3 10 19 12 23 12 15 0z"/>
<path d="M1130 2840 c0 -19 5 -24 23 -25 21 -2 21 -3 -3 18 -11 9 -20 12 -20
7z"/>
<path d="M1518 2879 l-86 -49 21 -53 c18 -43 21 -74 22 -178 0 -124 0 -126
-36 -197 -20 -40 -34 -72 -30 -72 12 0 112 168 141 237 34 82 62 230 58 307
l-3 54 -87 -49z m57 -66 c-3 -32 -9 -71 -12 -88 -3 -16 -5 -38 -5 -47 1 -20
-29 -40 -44 -30 -5 4 -10 29 -10 56 -1 26 -7 52 -14 56 -7 4 -10 12 -6 18 3 6
2 13 -3 17 -14 8 -2 35 15 35 8 0 14 5 14 11 0 5 4 8 9 5 5 -3 11 1 15 9 3 8
15 15 26 15 20 0 21 -4 15 -57z m-40 -223 c-13 -20 -25 -9 -25 22 0 32 0 32
16 10 8 -12 12 -27 9 -32z m15 40 c0 -5 -4 -10 -10 -10 -5 0 -10 5 -10 10 0 6
5 10 10 10 6 0 10 -4 10 -10z"/>
<path d="M2997 2818 c17 -159 22 -182 62 -284 33 -81 104 -192 124 -194 4 0
-2 19 -14 43 -53 102 -65 256 -30 382 11 38 19 70 18 70 -1 1 -13 8 -27 16
-34 22 -138 79 -142 79 -2 0 2 -51 9 -112z m61 35 c2 -7 -1 -13 -8 -13 -6 0
-8 4 -5 10 3 6 -1 7 -9 4 -9 -3 -16 -1 -16 6 0 15 32 9 38 -7z m32 -14 c0 -5
4 -8 9 -4 19 11 22 -37 5 -87 -10 -32 -17 -84 -17 -137 0 -47 -3 -76 -7 -66
-4 11 -6 23 -3 28 2 4 -1 7 -7 7 -7 0 -10 7 -6 15 3 8 1 15 -4 15 -9 0 -26 99
-23 138 1 12 -1 21 -5 18 -5 -3 -8 13 -8 35 0 33 2 38 17 34 10 -3 20 -1 24 5
8 13 25 13 25 -1z"/>
<path d="M3465 2876 l-90 -51 23 -65 c46 -127 38 -302 -18 -397 -30 -50 -6
-39 33 16 59 81 87 149 113 269 14 68 38 271 32 276 -1 2 -44 -20 -93 -48z
m48 -13 c-7 -2 -13 -9 -13 -14 0 -6 4 -8 9 -4 6 3 8 -4 6 -15 -2 -11 0 -20 5
-20 6 0 6 -10 0 -26 -6 -14 -10 -41 -10 -61 0 -41 -27 -140 -41 -149 -5 -3 -6
-10 -3 -16 4 -7 2 -8 -4 -4 -9 5 -9 13 -2 27 7 13 7 25 0 38 -13 25 -13 34 1
26 7 -5 7 -1 1 11 -11 20 -36 102 -37 119 0 6 -7 16 -15 23 -8 8 -9 11 -2 7 7
-4 12 0 12 9 0 19 21 21 39 4 11 -11 12 -9 2 9 -9 18 -8 20 8 16 11 -3 21 2
24 11 4 9 12 16 19 15 10 0 10 -2 1 -6z"/>
<path d="M3860 2898 c-43 -22 -121 -23 -162 -2 -29 15 -31 15 -24 -2 34 -87
66 -260 82 -441 18 -202 34 -264 34 -135 1 232 31 270 225 287 39 4 79 9 91
11 19 5 21 -1 32 -88 6 -52 15 -140 18 -196 7 -104 24 -142 24 -53 0 44 29
343 33 347 1 1 47 5 103 9 l101 7 12 -99 c7 -54 15 -144 18 -201 6 -105 23
-152 23 -65 0 43 15 196 40 419 5 45 18 108 29 140 11 32 18 60 16 62 -2 2
-13 -2 -25 -8 -23 -12 -122 -10 -153 5 -18 7 -18 5 2 -32 15 -30 41 -163 41
-211 0 -2 -8 -1 -17 2 -10 2 -57 7 -104 11 l-86 7 9 46 c11 61 37 141 56 170
16 25 8 28 -28 7 -14 -8 -50 -14 -80 -14 -30 0 -66 6 -80 14 -36 20 -43 18
-25 -8 21 -33 55 -135 55 -168 0 -35 35 -60 37 -27 1 12 -3 30 -8 40 -6 10
-12 34 -13 52 -2 19 -7 39 -10 45 -10 16 26 31 47 20 10 -6 26 -7 37 -4 14 4
20 2 18 -7 -2 -7 -6 -15 -10 -18 -7 -6 -17 -44 -24 -100 -3 -19 -7 -36 -9 -39
-3 -2 3 -9 12 -16 13 -9 13 -14 3 -20 -9 -6 -11 -4 -5 5 5 8 4 11 -3 6 -6 -3
-9 -15 -7 -26 2 -10 -4 -25 -13 -32 -10 -8 -13 -9 -9 -1 4 6 -1 18 -13 26 -11
7 -17 17 -12 22 4 4 -1 5 -10 2 -10 -3 -20 -2 -23 4 -4 5 -3 9 2 8 19 -3 34 2
29 10 -3 5 -32 12 -63 15 -97 12 -172 37 -203 67 l-28 29 18 51 c10 28 24 57
31 65 18 22 8 22 -31 2z m-116 -47 c3 -5 25 -8 50 -7 l43 1 -10 -29 c-8 -23
-6 -36 8 -62 10 -19 26 -36 36 -39 11 -4 19 -11 19 -16 0 -5 9 -9 21 -9 11 0
18 -4 14 -9 -3 -5 0 -13 6 -17 8 -4 9 -3 5 5 -5 8 2 11 23 9 16 -1 27 -6 25
-10 -5 -8 22 -12 64 -8 12 1 22 -3 22 -8 0 -9 -25 -14 -138 -27 -53 -6 -78
-19 -119 -61 -38 -38 -37 -39 -48 76 -3 36 -16 95 -28 131 -13 37 -21 72 -19
78 4 13 19 14 26 2z m740 -4 c3 4 6 1 6 -6 0 -7 5 -9 12 -5 7 4 8 3 4 -5 -4
-6 -9 -24 -11 -39 -3 -15 -9 -52 -14 -82 -5 -30 -8 -64 -6 -76 1 -15 -2 -21
-11 -17 -8 3 -11 9 -8 14 3 5 1 9 -3 9 -5 0 -9 29 -10 64 -1 36 -6 80 -11 98
-12 46 -6 59 23 48 12 -5 26 -6 29 -3z m-17 -268 c1 -19 1 -20 -4 -4 -3 11
-10 24 -17 28 -7 6 -6 7 4 4 8 -2 16 -14 17 -28z m-294 -19 c-3 -12 -8 -19
-11 -16 -5 6 5 36 12 36 2 0 2 -9 -1 -20z"/>
<path d="M2395 2900 c10 -17 42 -152 55 -234 7 -39 10 -139 8 -222 l-3 -152
25 17 c14 10 40 23 58 31 30 11 31 14 18 29 -58 64 -66 205 -19 341 16 47 33
92 37 101 5 12 -6 22 -52 42 -108 49 -134 58 -127 47z m75 -59 c0 -5 7 -12 16
-15 8 -3 12 -2 9 4 -3 6 1 7 9 4 9 -3 16 -10 16 -15 0 -4 7 -6 15 -3 8 4 15 1
15 -5 0 -6 -5 -11 -11 -11 -5 0 -8 -4 -5 -9 8 -13 -31 -44 -45 -35 -8 5 -10 3
-5 -5 5 -7 14 -10 22 -7 16 6 19 -10 3 -19 -6 -4 -8 -13 -5 -21 3 -7 0 -16 -6
-20 -13 -8 -30 16 -23 34 2 6 0 12 -6 12 -6 0 -7 5 -4 10 4 6 2 16 -3 23 -13
17 -22 58 -11 51 5 -3 9 0 9 5 0 6 -5 11 -11 11 -5 0 -7 5 -4 10 8 12 25 13
25 1z m44 -474 c-3 -9 -10 -14 -16 -11 -5 3 -4 11 3 20 8 10 8 14 0 14 -6 0
-11 5 -11 12 0 8 5 7 15 -3 9 -9 13 -23 9 -32z"/>
<path d="M2636 2808 c-16 -57 -31 -112 -34 -123 -3 -11 9 -2 26 21 42 58 111
113 174 140 l53 23 -42 1 c-24 0 -66 9 -95 20 -29 11 -53 20 -53 20 0 0 -13
-46 -29 -102z m94 47 c23 -13 21 -16 -12 -19 -7 -1 -20 -10 -30 -21 -9 -11
-19 -17 -23 -14 -3 4 1 14 10 22 10 11 12 18 4 23 -8 4 -7 9 2 15 18 11 19 11
49 -6z"/>
<path d="M3179 2867 c6 -8 7 -18 3 -22 -4 -5 -1 -5 6 -1 10 6 10 11 1 22 -6 8
-14 14 -16 14 -3 0 0 -6 6 -13z"/>
<path d="M779 2837 c6 -8 7 -18 3 -22 -4 -5 -1 -5 6 -1 10 6 10 11 1 22 -6 8
-14 14 -16 14 -3 0 0 -6 6 -13z"/>
<path d="M2506 2154 c-4 -11 0 -13 21 -8 l26 7 -5 -57 c-5 -55 -4 -56 21 -56
19 0 22 3 13 12 -18 18 -16 98 2 98 8 0 17 -6 20 -12 3 -7 5 -4 3 7 -2 16 -11
20 -49 22 -33 1 -48 -2 -52 -13z"/>
<path d="M2625 2105 c0 -55 3 -65 17 -65 14 0 16 6 12 30 -6 28 -5 30 26 30
31 0 32 -2 27 -30 -5 -25 -3 -30 12 -30 16 0 17 5 11 38 -3 20 -3 49 1 65 6
24 5 27 -17 27 -13 0 -24 -4 -24 -10 0 -5 5 -10 10 -10 6 0 10 -9 10 -20 0
-16 -7 -20 -31 -20 -30 0 -31 2 -25 30 4 24 2 30 -12 30 -14 0 -17 -10 -17
-65z"/>
<path d="M2765 2105 l0 -66 39 3 c22 2 41 9 44 15 2 9 -5 11 -27 7 -27 -6 -31
-4 -31 14 0 13 8 22 23 25 l22 4 -22 2 c-29 1 -33 41 -4 41 11 0 22 -6 24 -12
3 -7 6 -3 6 10 1 19 -4 22 -36 22 l-38 0 0 -65z"/>
<path d="M2902 2158 c-18 -18 -15 -34 13 -52 14 -9 25 -23 25 -31 0 -18 -31
-20 -48 -3 -9 9 -12 8 -12 -5 0 -21 45 -33 65 -17 23 19 18 37 -15 61 -31 24
-30 44 2 36 12 -4 18 -1 15 6 -5 17 -30 20 -45 5z"/>
<path d="M2976 2163 c-13 -13 -5 -20 19 -15 24 4 25 2 25 -42 0 -25 -4 -46
-10 -46 -5 0 -10 -4 -10 -10 0 -5 11 -10 25 -10 14 0 25 5 25 10 0 6 -4 10
-10 10 -5 0 -10 21 -10 46 0 44 1 46 25 41 16 -3 24 0 22 7 -4 12 -90 20 -101
9z"/>
<path d="M3096 2133 c9 -68 14 -81 30 -87 26 -10 53 3 58 27 16 78 15 97 -5
97 -10 0 -19 -4 -19 -10 0 -5 4 -10 9 -10 5 0 8 -8 6 -17 -2 -10 -4 -31 -4
-46 -1 -24 -5 -28 -23 -25 -21 3 -23 9 -23 56 1 43 -2 52 -16 52 -15 0 -17 -7
-13 -37z"/>
<path d="M3225 2104 l0 -65 35 6 c70 12 84 82 23 114 -49 25 -58 16 -58 -55z
m71 22 c8 -35 -4 -66 -27 -66 -16 0 -19 7 -19 45 0 38 3 45 20 45 12 0 22 -9
26 -24z"/>
<path d="M3340 2158 c0 -4 5 -8 10 -8 6 0 10 -18 10 -39 0 -22 -4 -43 -10 -46
-23 -14 -7 -25 35 -25 31 0 45 4 45 13 0 9 -10 12 -30 9 -25 -4 -30 -1 -30 16
0 13 8 22 23 25 l22 4 -22 2 c-16 1 -23 7 -23 22 0 17 5 20 25 17 17 -4 25 -1
25 8 0 10 -12 13 -40 12 -22 -1 -40 -5 -40 -10z"/>
<path d="M3448 2159 c15 -17 16 -91 0 -107 -9 -9 -6 -12 17 -12 23 0 26 3 17
12 -13 13 -17 92 -4 84 4 -2 18 -26 31 -51 13 -26 27 -43 31 -38 4 4 10 34 12
66 4 50 2 57 -14 57 -10 0 -18 -4 -18 -10 0 -5 4 -10 8 -10 4 0 9 -19 11 -42
2 -48 -2 -47 -34 14 -15 29 -31 44 -46 46 -19 3 -22 1 -11 -9z"/>
<path d="M3570 2155 c0 -8 8 -11 21 -8 21 6 22 3 17 -50 -5 -56 -4 -57 21 -57
19 0 22 3 13 12 -7 7 -12 32 -12 56 0 39 2 44 20 39 13 -3 20 0 20 8 0 10 -15
14 -50 13 -34 0 -50 -4 -50 -13z"/>
<path d="M3750 2143 c-7 -17 -20 -48 -30 -67 -17 -34 -17 -36 -1 -36 12 0 17
8 17 23 -1 16 5 23 23 25 21 3 23 0 19 -22 -4 -22 -2 -26 17 -26 l23 0 -19 37
c-10 21 -19 44 -19 53 0 8 -5 22 -10 30 -7 12 -12 9 -20 -17z m20 -28 c0 -8
-7 -15 -15 -15 -9 0 -12 6 -9 15 4 8 10 15 15 15 5 0 9 -7 9 -15z"/>
<path d="M3841 2157 c-12 -15 -5 -47 9 -47 11 0 40 -29 40 -40 0 -16 -30 -19
-45 -4 -13 14 -15 14 -15 0 0 -21 17 -29 44 -22 38 9 40 34 6 64 -37 32 -38
46 -5 39 16 -3 24 0 22 7 -5 17 -42 19 -56 3z"/>
<path d="M3942 2158 c-19 -19 -14 -36 13 -54 14 -9 25 -22 25 -29 0 -20 -23
-24 -42 -7 -16 14 -18 13 -18 -1 0 -21 46 -33 65 -17 23 19 18 36 -15 60 -37
26 -39 44 -5 37 16 -3 24 0 22 7 -5 16 -30 19 -45 4z"/>
<path d="M4025 2103 l0 -63 38 0 c24 0 37 5 37 14 0 9 -8 12 -25 8 -20 -3 -25
0 -25 16 0 13 8 22 23 25 l22 4 -22 2 c-29 1 -33 41 -4 41 11 0 22 -6 24 -12
3 -7 6 -3 6 9 1 20 -4 23 -36 21 l-38 -1 0 -64z"/>
<path d="M4130 2161 c0 -6 4 -11 9 -11 6 0 7 -11 1 -27 -19 -61 -21 -83 -7
-83 9 0 14 14 15 42 3 57 9 58 23 4 13 -52 26 -59 35 -18 14 65 17 69 25 32 4
-21 3 -40 -3 -47 -8 -10 -5 -13 11 -13 18 0 20 4 15 26 -4 14 -7 43 -8 65 -1
51 -17 45 -37 -14 l-16 -47 -14 47 c-9 29 -22 49 -32 51 -9 2 -17 -1 -17 -7z"/>
<path d="M4285 2105 c0 -63 1 -65 26 -65 40 0 63 22 53 51 -4 13 -7 31 -5 41
2 19 -12 30 -48 34 -26 3 -26 2 -26 -61z m53 28 c-5 -25 -28 -28 -28 -4 0 12
6 21 16 21 9 0 14 -7 12 -17z m10 -56 c2 -12 -3 -17 -17 -17 -15 0 -21 6 -21
21 0 25 33 22 38 -4z"/>
<path d="M4395 2105 l0 -66 39 3 c22 2 41 9 44 15 2 9 -5 11 -29 6 l-32 -6 5
56 c4 47 2 57 -11 57 -13 0 -16 -12 -16 -65z"/>
<path d="M4480 2160 c0 -5 4 -10 9 -10 15 0 34 -58 27 -85 -5 -21 -3 -25 14
-25 17 0 19 4 14 25 -7 27 12 85 27 85 5 0 9 5 9 10 0 6 -9 10 -21 10 -15 0
-19 -5 -15 -17 3 -10 1 -25 -4 -33 -7 -12 -11 -8 -16 18 -5 22 -12 32 -25 32
-11 0 -19 -4 -19 -10z"/>
</g>
</svg>
